<svg width="50" height="65" viewBox="0 0 50 65" fill="none" xmlns="http://www.w3.org/2000/svg">
<path d="M49.5 27C49.5 44.6731 30.5 63.5 25 64C19.5 64.5 0.5 44.6731 0.5 27C0.5 9.32689 7.32689 1 25 1C42.6731 1 49.5 9.32689 49.5 27Z" fill="white" stroke="black"/>
<path d="M27.3927 7.44292L34.5 24.5M21 7.5H29M18 27.5H32M19 28C19 30.7614 16.7614 33 14 33C11.2386 33 9 30.7614 9 28C9 25.2386 11.2386 23 14 23C16.7614 23 19 25.2386 19 28ZM41 28C41 30.7614 38.7614 33 36 33C33.2386 33 31 30.7614 31 28C31 25.2386 33.2386 23 36 23C38.7614 23 41 25.2386 41 28Z" stroke="black" stroke-width="3"/>
<path d="M11 42H39" stroke="#00FF00" stroke-width="4" stroke-linecap="round"/>
</svg>
