<svg width="50" height="57" viewBox="0 0 50 57" fill="none" xmlns="http://www.w3.org/2000/svg">
<path d="M45 22.4572C45 37.0423 29.4898 52.5797 25 52.9924C20.5102 53.405 5 37.0423 5 22.4572C5 7.87198 10.573 1 25 1C39.427 1 45 7.87198 45 22.4572Z" fill="white" stroke="black"/>
<path d="M27.3927 6.94292L34.5 24M21 7H29M18 27H32M19 27.5C19 30.2614 16.7614 32.5 14 32.5C11.2386 32.5 9 30.2614 9 27.5C9 24.7386 11.2386 22.5 14 22.5C16.7614 22.5 19 24.7386 19 27.5ZM41 27.5C41 30.2614 38.7614 32.5 36 32.5C33.2386 32.5 31 30.2614 31 27.5C31 24.7386 33.2386 22.5 36 22.5C38.7614 22.5 41 24.7386 41 27.5Z" stroke="black" stroke-width="3"/>
<path d="M15 39H35" stroke="#00FF00" stroke-width="4" stroke-linecap="round"/>
</svg>
